<svg preserveAspectRatio="none" width="100%" height="100%" overflow="visible" style="display: block;" viewBox="0 0 16 16" fill="none" xmlns="http://www.w3.org/2000/svg">
<g id="Vector">
<path fill-rule="evenodd" clip-rule="evenodd" d="M0.292893 0.292893C0.683417 -0.0976311 1.31658 -0.0976311 1.70711 0.292893L15.0404 13.6262C15.431 14.0167 15.431 14.6499 15.0404 15.0404C14.6499 15.431 14.0167 15.431 13.6262 15.0404L0.292893 1.70711C-0.0976311 1.31658 -0.0976311 0.683417 0.292893 0.292893Z" fill="var(--fill-0, #868E8D)"/>
<path fill-rule="evenodd" clip-rule="evenodd" d="M15.0404 0.292893C15.431 0.683417 15.431 1.31658 15.0404 1.70711L1.70711 15.0404C1.31658 15.431 0.683417 15.431 0.292893 15.0404C-0.0976311 14.6499 -0.0976311 14.0167 0.292893 13.6262L13.6262 0.292893C14.0167 -0.0976311 14.6499 -0.0976311 15.0404 0.292893Z" fill="var(--fill-0, #868E8D)"/>
</g>
</svg>
