<svg preserveAspectRatio="none" width="100%" height="100%" overflow="visible" style="display: block;" viewBox="0 0 19 18" fill="none" xmlns="http://www.w3.org/2000/svg">
<g id="Vector">
<path fill-rule="evenodd" clip-rule="evenodd" d="M1.88302 7.33333C2.26271 7.33333 2.57052 7.64114 2.57052 8.02083V16.5H15.8622V8.02083C15.8622 7.64114 16.17 7.33333 16.5497 7.33333C16.9294 7.33333 17.2372 7.64114 17.2372 8.02083V17.1875C17.2372 17.5672 16.9294 17.875 16.5497 17.875H1.88302C1.50332 17.875 1.19552 17.5672 1.19552 17.1875V8.02083C1.19552 7.64114 1.50332 7.33333 1.88302 7.33333Z" fill="var(--fill-0, #1C1B1F)"/>
<path fill-rule="evenodd" clip-rule="evenodd" d="M1.61091 0.439846C1.71326 0.174788 1.96812 0 2.25225 0H16.1803C16.4644 0 16.7192 0.174746 16.8216 0.439757L18.1978 4.00206C19.0752 6.27355 17.3824 8.70833 14.9574 8.70833C13.8331 8.70833 12.8301 8.16798 12.2 7.33156C11.573 8.1675 10.5739 8.70833 9.44844 8.70833H8.98167C7.85631 8.70833 6.85725 8.16755 6.23018 7.33168C5.60024 8.16801 4.5975 8.70833 3.47324 8.70833C1.04902 8.70833 -0.642131 6.27453 0.23457 4.00412L1.61091 0.439846ZM6.91917 5.27083C6.91917 6.40992 7.84259 7.33333 8.98167 7.33333H9.44844C10.5875 7.33333 11.5109 6.40992 11.5109 5.27083C11.5109 4.89114 11.8187 4.58333 12.1984 4.58333C12.5781 4.58333 12.8859 4.89114 12.8859 5.27083C12.8859 6.40702 13.8154 7.33333 14.9574 7.33333C16.4267 7.33333 17.4409 5.85871 16.9151 4.49755C16.9151 4.49754 16.9151 4.49755 16.9151 4.49755L15.7089 1.375H2.72375L1.51726 4.49943C0.991875 5.86003 2.00518 7.33333 3.47324 7.33333C4.61507 7.33333 5.54417 6.40718 5.54417 5.27083C5.54417 4.89114 5.85198 4.58333 6.23167 4.58333C6.61137 4.58333 6.91917 4.89114 6.91917 5.27083Z" fill="var(--fill-0, #1C1B1F)"/>
</g>
</svg>
