<svg preserveAspectRatio="none" width="100%" height="100%" overflow="visible" style="display: block;" viewBox="0 0 18 18" fill="none" xmlns="http://www.w3.org/2000/svg">
<path id="&#229;&#189;&#162;&#231;&#138;&#182;&#231;&#187;&#147;&#229;&#144;&#136;" d="M15.4555 0.220723C15.8957 -0.105944 16.5209 -0.0698852 16.9203 0.329122C17.3597 0.768461 17.3597 1.48158 16.9203 1.92092L10.2162 8.62502L16.9203 15.3291C17.3597 15.7685 17.3597 16.4816 16.9203 16.9209C16.5209 17.32 15.8958 17.356 15.4555 17.0293L15.3295 16.9209L8.62443 10.2158L1.92033 16.9209L1.79435 17.0293C1.35396 17.356 0.728891 17.3202 0.329505 16.9209C-0.109835 16.4816 -0.109835 15.7685 0.329505 15.3291L7.03361 8.62502L0.329505 1.92092C-0.109835 1.48158 -0.109835 0.768461 0.329505 0.329122C0.728883 -0.0701576 1.35397 -0.105963 1.79435 0.220723L1.92033 0.329122L8.62443 7.03322L15.3295 0.329122L15.4555 0.220723Z" fill="var(--fill-0, #FAFAFA)"/>
</svg>
