<svg preserveAspectRatio="none" width="100%" height="100%" overflow="visible" style="display: block;" viewBox="0 0 15 16" fill="none" xmlns="http://www.w3.org/2000/svg">
<path id="Vector" d="M14.1894 4.16274C14.029 3.92666 13.8115 3.72558 13.5491 3.57967L8.45093 0.745357C7.86249 0.418214 7.13751 0.418214 6.54907 0.745357L1.45093 3.57967C0.862492 3.90681 0.5 4.5114 0.5 5.16568V10.8343C0.5 11.4886 0.862492 12.0932 1.45093 12.4203L6.54907 15.2546C7.13751 15.5818 7.86249 15.5818 8.45093 15.2546L13.5491 12.4203C14.1375 12.0932 14.5 11.4886 14.5 10.8343V8M14.1894 4.16274C14.3887 4.45598 14.5 4.80321 14.5 5.16568V8M14.1894 4.16274L8.10744 7.82547M14.5 8L8.45093 11.4882" stroke="var(--stroke-0, #606266)" stroke-linecap="round" stroke-linejoin="round"/>
</svg>
