<svg preserveAspectRatio="none" width="100%" height="100%" overflow="visible" style="display: block;" viewBox="0 0 16 15" fill="none" xmlns="http://www.w3.org/2000/svg">
<g id="Vector">
<path d="M14.3003 0.0416667L8.43896 4.41783L9.52752 1.836L14.3003 0.0416667Z" fill="#E17726"/>
<path d="M0.783031 0.0416667L6.59105 4.45925L5.55581 1.836L0.783031 0.0416667Z" fill="#E27625"/>
<path d="M12.1933 10.1864L10.6341 12.5909L13.9705 13.5143L14.924 10.2395L12.1933 10.1864Z" fill="#E27625"/>
<path d="M0.165131 10.2395L1.11285 13.5143L4.44927 12.5909L2.89583 10.1864L0.165131 10.2395Z" fill="#E27625"/>
<path d="M4.26669 6.1235L3.33694 7.53925L6.64438 7.68742L6.53251 4.104L4.26669 6.1235Z" fill="#E27625"/>
<path d="M10.8166 6.1235L8.51547 4.06258L8.43896 7.68742L11.7464 7.53925L10.8166 6.1235Z" fill="#E27625"/>
<path d="M4.44927 12.5909L6.4444 11.6133L4.72576 10.2634L4.44927 12.5909Z" fill="#E27625"/>
<path d="M8.63893 11.6133L10.6341 12.5909L10.3576 10.2634L8.63893 11.6133Z" fill="#E27625"/>
<path d="M10.6341 12.5909L8.63893 11.6133L8.79776 12.9223L8.78037 13.4729L10.6341 12.5909Z" fill="#D5BFB2"/>
<path d="M4.44927 12.5909L6.30297 13.4729L6.29138 12.9223L6.4444 11.6133L4.44927 12.5909Z" fill="#D5BFB2"/>
<path d="M6.33833 9.39834L4.67881 8.90717L5.84969 8.36817L6.33833 9.39834Z" fill="#233447"/>
<path d="M8.74501 9.39834L9.23365 8.36817L10.4103 8.90717L8.74501 9.39834Z" fill="#233447"/>
<path d="M4.44927 12.5909L4.73735 10.1864L2.89583 10.2395L4.44927 12.5909Z" fill="#CC6228"/>
<path d="M10.346 10.1864L10.6341 12.5909L12.1933 10.2395L10.346 10.1864Z" fill="#CC6228"/>
<path d="M11.7464 7.53925L8.43896 7.68742L8.74501 9.39834L9.23365 8.36817L10.4103 8.90717L11.7464 7.53925Z" fill="#CC6228"/>
<path d="M4.67881 8.90717L5.84969 8.36817L6.33833 9.39834L6.64438 7.68742L3.33694 7.53925L4.67881 8.90717Z" fill="#CC6228"/>
<path d="M3.33694 7.53925L4.72576 10.2634L4.67881 8.90717L3.33694 7.53925Z" fill="#E27525"/>
<path d="M10.4103 8.90717L10.3576 10.2634L11.7464 7.53925L10.4103 8.90717Z" fill="#E27525"/>
<path d="M6.64438 7.68742L6.33833 9.39834L6.72669 11.4178L6.809 8.759L6.64438 7.68742Z" fill="#E27525"/>
<path d="M8.43896 7.68742L8.28013 8.75317L8.35664 11.4178L8.74501 9.39834L8.43896 7.68742Z" fill="#E27525"/>
<path d="M8.74501 9.39834L8.35664 11.4178L8.63893 11.6133L10.3576 10.2634L10.4103 8.90717L8.74501 9.39834Z" fill="var(--fill-0, #F5841F)"/>
<path d="M4.67881 8.90717L4.72576 10.2634L6.4444 11.6133L6.72669 11.4178L6.33833 9.39834L4.67881 8.90717Z" fill="var(--fill-0, #F5841F)"/>
<path d="M8.78037 13.4729L8.79776 12.9223L8.6511 12.7922H6.43223L6.29138 12.9223L6.30297 13.4729L4.44927 12.5909L5.09673 13.1235L6.41484 14.0417H8.66849L9.9866 13.1235L10.6341 12.5909L8.78037 13.4729Z" fill="#C0AC9D"/>
<path d="M8.63893 11.6133L8.35664 11.4178H6.72669L6.4444 11.6133L6.29138 12.9223L6.43223 12.7922H8.6511L8.79776 12.9223L8.63893 11.6133Z" fill="#161616"/>
<path d="M14.5472 4.7025L15.0417 2.28633L14.3003 0.0416667L8.63893 4.27025L10.8166 6.1235L13.894 7.03L14.571 6.23025L14.2765 6.01733L14.7472 5.5845L14.3884 5.30042L14.8591 4.93933L14.5472 4.7025Z" fill="#763E1A"/>
<path d="M0.0416667 2.28633L0.541898 4.7025L0.224255 4.93933L0.694924 5.30042L0.336125 5.5845L0.806795 6.01733L0.512337 6.23025L1.18936 7.03L4.26669 6.1235L6.4444 4.27025L0.783031 0.0416667L0.0416667 2.28633Z" fill="#763E1A"/>
<path d="M13.894 7.03L10.8166 6.1235L11.7464 7.53925L10.3576 10.2634L12.1933 10.2395H14.924L13.894 7.03Z" fill="var(--fill-0, #F5841F)"/>
<path d="M4.26669 6.1235L1.18936 7.03L0.165131 10.2395H2.89583L4.72576 10.2634L3.33694 7.53925L4.26669 6.1235Z" fill="var(--fill-0, #F5841F)"/>
<path d="M8.43896 7.68742L8.63893 4.27025L9.52752 1.836H5.55581L6.4444 4.27025L6.64438 7.68742L6.72089 8.76484L6.72669 11.4178H8.35664L8.36244 8.76484L8.43896 7.68742Z" fill="var(--fill-0, #F5841F)"/>
<path d="M14.3003 0.0416667L8.43896 4.41783L9.52752 1.836M14.3003 0.0416667L9.52752 1.836M14.3003 0.0416667L15.0417 2.28633L14.5472 4.7025L14.8591 4.93933L14.3884 5.30042L14.7472 5.5845L14.2765 6.01733L14.571 6.23025L13.894 7.03M14.3003 0.0416667L8.63893 4.27025M9.52752 1.836L8.63893 4.27025M9.52752 1.836H5.55581M0.783031 0.0416667L6.59105 4.45925L5.55581 1.836M0.783031 0.0416667L5.55581 1.836M0.783031 0.0416667L6.4444 4.27025M0.783031 0.0416667L0.0416667 2.28633L0.541898 4.7025L0.224255 4.93933L0.694924 5.30042L0.336125 5.5845L0.806795 6.01733L0.512337 6.23025L1.18936 7.03M5.55581 1.836L6.4444 4.27025M10.6341 12.5909L12.1933 10.1864L14.924 10.2395M10.6341 12.5909L13.9705 13.5143L14.924 10.2395M10.6341 12.5909L8.63893 11.6133M10.6341 12.5909L10.3576 10.2634M10.6341 12.5909L8.78037 13.4729L8.79776 12.9223M10.6341 12.5909L10.346 10.1864L12.1933 10.2395M10.6341 12.5909L12.1933 10.2395M10.6341 12.5909L9.9866 13.1235L8.66849 14.0417H6.41484L5.09673 13.1235L4.44927 12.5909M14.924 10.2395H12.1933M14.924 10.2395L13.894 7.03M0.165131 10.2395L1.11285 13.5143L4.44927 12.5909M0.165131 10.2395L2.89583 10.1864L4.44927 12.5909M0.165131 10.2395L1.18936 7.03M0.165131 10.2395H2.89583M4.44927 12.5909L6.4444 11.6133M4.44927 12.5909L4.72576 10.2634M4.44927 12.5909L6.30297 13.4729L6.29138 12.9223M4.44927 12.5909L4.73735 10.1864L2.89583 10.2395M4.44927 12.5909L2.89583 10.2395M4.26669 6.1235L3.33694 7.53925M4.26669 6.1235L6.53251 4.104L6.64438 7.68742M4.26669 6.1235L1.18936 7.03M4.26669 6.1235L6.4444 4.27025M3.33694 7.53925L6.64438 7.68742M3.33694 7.53925L4.67881 8.90717M3.33694 7.53925L4.72576 10.2634M6.64438 7.68742L6.33833 9.39834M6.64438 7.68742L6.809 8.759L6.72669 11.4178M6.64438 7.68742L6.4444 4.27025M6.64438 7.68742L6.72089 8.76484L6.72669 11.4178M10.8166 6.1235L8.51547 4.06258L8.43896 7.68742M10.8166 6.1235L11.7464 7.53925M10.8166 6.1235L8.63893 4.27025M10.8166 6.1235L13.894 7.03M8.43896 7.68742L11.7464 7.53925M8.43896 7.68742L8.74501 9.39834M8.43896 7.68742L8.28013 8.75317L8.35664 11.4178M8.43896 7.68742L8.63893 4.27025M8.43896 7.68742L8.36244 8.76484L8.35664 11.4178M11.7464 7.53925L10.4103 8.90717M11.7464 7.53925L10.3576 10.2634M6.4444 11.6133L4.72576 10.2634M6.4444 11.6133L6.29138 12.9223M6.4444 11.6133L6.72669 11.4178M4.72576 10.2634L4.67881 8.90717M4.72576 10.2634L2.89583 10.2395M8.63893 11.6133L10.3576 10.2634M8.63893 11.6133L8.79776 12.9223M8.63893 11.6133L8.35664 11.4178M10.3576 10.2634L10.4103 8.90717M10.3576 10.2634L12.1933 10.2395M8.79776 12.9223L8.6511 12.7922H6.43223L6.29138 12.9223M6.33833 9.39834L4.67881 8.90717M6.33833 9.39834L5.84969 8.36817L4.67881 8.90717M6.33833 9.39834L6.72669 11.4178M8.74501 9.39834L9.23365 8.36817L10.4103 8.90717M8.74501 9.39834L10.4103 8.90717M8.74501 9.39834L8.35664 11.4178M6.72669 11.4178H8.35664" stroke="var(--stroke-0, #F5841F)" stroke-width="0.0833333" stroke-linecap="round" stroke-linejoin="round"/>
</g>
</svg>
